<svg width="49" height="49" viewBox="0 0 49 49" fill="none" xmlns="http://www.w3.org/2000/svg">
<path d="M14.3698 2H6.94792C5.63565 2 4.37713 2.5213 3.44921 3.44921C2.5213 4.37713 2 5.63565 2 6.94792V14.3698M46.5312 14.3698V6.94792C46.5312 5.63565 46.01 4.37713 45.082 3.44921C44.1541 2.5213 42.8956 2 41.5833 2H34.1615M34.1615 46.5312H41.5833C42.8956 46.5312 44.1541 46.01 45.082 45.082C46.01 44.1541 46.5312 42.8956 46.5312 41.5833V34.1615M2 34.1615V41.5833C2 42.8956 2.5213 44.1541 3.44921 45.082C4.37713 46.01 5.63565 46.5312 6.94792 46.5312H14.3698" stroke="white" stroke-width="4" stroke-linecap="round" stroke-linejoin="round"/>
<path fill-rule="evenodd" clip-rule="evenodd" d="M12 8C9.79086 8 8 9.79086 8 12V22H22V8H12ZM13 12C12.4477 12 12 12.4477 12 13V17C12 17.5523 12.4477 18 13 18H17C17.5523 18 18 17.5523 18 17V13C18 12.4477 17.5523 12 17 12H13Z" fill="white"/>
<path fill-rule="evenodd" clip-rule="evenodd" d="M36 8H26V22H40V12C40 9.79086 38.2091 8 36 8ZM31 12C30.4477 12 30 12.4477 30 13V17C30 17.5523 30.4477 18 31 18H35C35.5523 18 36 17.5523 36 17V13C36 12.4477 35.5523 12 35 12H31Z" fill="white"/>
<path fill-rule="evenodd" clip-rule="evenodd" d="M22 26H8V36C8 38.2091 9.79086 40 12 40H22V26ZM13 30C12.4477 30 12 30.4477 12 31V35C12 35.5523 12.4477 36 13 36H17C17.5523 36 18 35.5523 18 35V31C18 30.4477 17.5523 30 17 30H13Z" fill="white"/>
<rect x="26" y="26" width="6" height="6" rx="1" fill="white"/>
<rect x="34" y="26" width="6" height="6" rx="1" fill="white"/>
<rect x="26" y="34" width="6" height="6" rx="1" fill="white"/>
</svg>
